<?xml version="1.0" encoding="UTF-8"?>
<svg xmlns="http://www.w3.org/2000/svg" version="1.1" viewBox="0 0 100 100">
  <defs>
    <style>
      .cls-1 {
        fill: #fff;
      }
    </style>
  </defs>
  <!-- Generator: Adobe Illustrator 28.6.0, SVG Export Plug-In . SVG Version: 1.2.0 Build 709)  -->
  <g>
    <g id="Layer_1">
      <g>
        <path class="cls-1" d="M50.5,2.3c-13.9,0-26.8,6-35.5,15.5h5.5c4.8-4,14.6-11.7,29.7-11.7,24.3,0,43.7,20,43.7,43.8s-19.3,43.8-43.7,43.8S6.4,75.2,6.4,50.7s12.1-23.8,24.1-23.8h35.1s0,31.9,0,35.5c0,6.6-6.2,14.9-15.8,14.9s-13-5.8-14.5-9.4c4.6-1.4,8.4-5,9.8-10,0,0,0,0,0,0,0,0,0,0,0,0,1.3-4.9-1.6-10-6.5-11.3-4.9-1.3-10,1.6-11.3,6.5-1.3,4.8,0,9.8,3.1,13.2h0c2.3,9.3,11.3,16.6,21.1,16.6,15.6,0,22.8-13.3,22.8-21.8V22.9H29.9c-15.1,0-27.5,12-27.5,27.1,0,28.1,22.8,47.7,48.1,47.7s47.3-21.3,47.3-47.7S76.1,2.3,50.5,2.3Z"/>
        <polygon class="cls-1" points="30.7 46.3 30.7 46.3 30.7 46.3 30.7 46.3"/>
        <path class="cls-1" d="M31.8,44.7c-4.8-.9-9.6.8-12.8,4.1,1,3,2.9,5.5,5.5,7.2-.3-4.6,2.4-9.5,7.3-11.3Z"/>
        <path class="cls-1" d="M54.4,57.9c-1.3-4.5-4.6-8.2-9.3-9.7,3,3.6,3.6,9.1.9,13.4,3.2-.3,6.2-1.6,8.5-3.7Z"/>
        <path class="cls-1" d="M40.4,39.1c-1.1-.3-2.3.4-2.6,1.5-.3,1.1.4,2.3,1.5,2.6,1.1.3,2.3-.4,2.6-1.5.3-1.1-.4-2.3-1.5-2.6Z"/>
        <path class="cls-1" d="M37.2,43c.2-.7-.2-1.4-.9-1.6-.7-.2-1.4.2-1.6.9-.2.7.2,1.4.9,1.6.7.2,1.4-.2,1.6-.9Z"/>
        <path class="cls-1" d="M41.3,44.1c-.2.7.2,1.4.9,1.6.7.2,1.4-.2,1.6-.9.2-.7-.2-1.4-.9-1.6-.7-.2-1.4.2-1.6.9Z"/>
      </g>
    </g>
  </g>
</svg>